<?xml version="1.0" encoding="UTF-8"?>
<!-- Generator: Adobe Illustrator 18.0.0, SVG Export Plug-In . SVG Version: 6.00 Build 0)  -->
<!DOCTYPE svg PUBLIC "-//W3C//DTD SVG 1.1//EN" "http://www.w3.org/Graphics/SVG/1.1/DTD/svg11.dtd">
<svg version="1.1" id="Layer_1" xmlns="http://www.w3.org/2000/svg" xmlns:xlink="http://www.w3.org/1999/xlink" x="0px" y="0px" viewBox="0 0 300 300" enable-background="new 0 0 300 300" xml:space="preserve">
<path fill="#007DC3" d="M1,150c0-41.1,14.5-76.2,43.6-105.3S108.9,1,150,1s76.2,14.5,105.3,43.6S299,108.9,299,150  s-14.5,76.2-43.6,105.3S191.1,299,150,299s-76.2-14.5-105.3-43.6S1,191.1,1,150L1,150z M54,197.1c0,4.3,1.7,6.4,5.2,6.4h21.5v-27.3  c0-3.5,0.9-6.7,2.6-9.6c1.7-2.9,4.2-5.1,7.3-6.7l22.1-10.5c1.9-1.2,3.5-2.5,4.7-4.1c-2.3-3.5-4.3-7.6-5.8-12.2  c-1.6-4.7-2.3-9.5-2.3-14.5c0-3.1,0.4-6.2,1.2-9.3c0.8-3.1,1.7-6,2.9-8.7c-3.9-2.7-8-4.1-12.2-4.1c-7.4,0.4-13.2,3.4-17.5,9  c-4.3,5.6-6.4,11.9-6.4,18.9c0.4,12,4.7,20.6,12.8,25.6l-33.2,15.1c-1.9,1.2-2.9,3.1-2.9,5.8L54,197.1L54,197.1z M90.6,203.5  c-0.4,8.1,1.9,12.4,7,12.8h104.2c2.3-0.8,4-1.9,4.9-3.5c1-1.6,1.5-2.8,1.5-3.8v-32.9c0-3.5-1.4-5.8-4.1-7l-27.9-14l-12.2-5.8  c7.4-4.3,12.2-11.6,14.5-22.1c1.6-5.8,1.6-11.8,0-18c-1.9-7-5.5-12.9-10.8-17.7c-5.2-4.8-11.3-7.5-18.3-7.9c-7,0.4-13,3-18,7.9  c-5,4.8-8.5,10.6-10.5,17.2c-2.3,8.9-1.6,18,2.3,27.3c3.1,5.8,7.2,10.5,12.2,14l-11.1,5.2l-29.1,13.4c-3.1,1.6-4.7,4.1-4.7,7.6  L90.6,203.5L90.6,203.5z M182,145.3c1.6,1.6,3.5,3.1,5.8,4.7c2.3,1.6,4.5,2.7,6.4,3.5c1.9,0.8,4.5,1.8,7.6,3.2  c3.1,1.4,5.4,2.4,7,3.2c3.1,1.6,5.5,3.8,7.3,6.7c1.7,2.9,2.6,6.1,2.6,9.6v27.3h22.1c3.5-0.4,5.2-2.5,5.2-6.4v-26.2  c0-2.7-1-4.7-2.9-5.8l-32.6-15.7c8.1-5.8,12.2-14.2,12.2-25c0-7.4-2.3-13.9-7-19.5s-10.3-8.4-16.9-8.4c-4.3,0-8.5,1.4-12.8,4.1  c2.3,5.8,3.5,11.8,3.5,18C189.6,128.3,187,137.2,182,145.3L182,145.3z"/>
</svg>